<mxfile host="app.diagrams.net" modified="2024-02-23T17:18:45.136Z" agent="Mozilla/5.0 (Windows NT 10.0; Win64; x64) AppleWebKit/537.36 (KHTML, like Gecko) Chrome/121.0.0.0 Safari/537.36" etag="iceIVT3e1xNs9qxbN0PT" version="23.1.6" type="github">
  <diagram name="Página-1" id="b9glNSWme-n3HAqBJesC">
    <mxGraphModel dx="2200" dy="1170" grid="1" gridSize="10" guides="1" tooltips="1" connect="1" arrows="1" fold="1" page="1" pageScale="1" pageWidth="827" pageHeight="1169" math="0" shadow="0">
      <root>
        <mxCell id="0" />
        <mxCell id="1" parent="0" />
        <mxCell id="uAh_L9xHc_W9SGq94N6g-51" value="" style="swimlane;startSize=0;" vertex="1" parent="1">
          <mxGeometry x="20" y="375" width="820" height="420" as="geometry" />
        </mxCell>
        <mxCell id="uAh_L9xHc_W9SGq94N6g-1" value="ADMINISTRACIÓN" style="html=1;outlineConnect=0;whiteSpace=wrap;fillColor=#dae8fc;shape=mxgraph.archimate3.application;appType=comp;archiType=square;strokeColor=#6c8ebf;fontFamily=Verdana;" vertex="1" parent="uAh_L9xHc_W9SGq94N6g-51">
          <mxGeometry x="43" y="50" width="130" height="60" as="geometry" />
        </mxCell>
        <mxCell id="uAh_L9xHc_W9SGq94N6g-2" value="SIMCI" style="html=1;outlineConnect=0;whiteSpace=wrap;fillColor=#dae8fc;shape=mxgraph.archimate3.application;appType=comp;archiType=square;strokeColor=#6c8ebf;fontFamily=Verdana;" vertex="1" parent="uAh_L9xHc_W9SGq94N6g-51">
          <mxGeometry x="43" y="140" width="130" height="60" as="geometry" />
        </mxCell>
        <mxCell id="uAh_L9xHc_W9SGq94N6g-3" value="DAICMA" style="html=1;outlineConnect=0;whiteSpace=wrap;fillColor=#dae8fc;shape=mxgraph.archimate3.application;appType=comp;archiType=square;strokeColor=#6c8ebf;fontFamily=Verdana;" vertex="1" parent="uAh_L9xHc_W9SGq94N6g-51">
          <mxGeometry x="43" y="230" width="130" height="60" as="geometry" />
        </mxCell>
        <mxCell id="uAh_L9xHc_W9SGq94N6g-4" value="INPEC" style="html=1;outlineConnect=0;whiteSpace=wrap;fillColor=#dae8fc;shape=mxgraph.archimate3.application;appType=comp;archiType=square;strokeColor=#6c8ebf;fontFamily=Verdana;" vertex="1" parent="uAh_L9xHc_W9SGq94N6g-51">
          <mxGeometry x="43" y="320" width="130" height="60" as="geometry" />
        </mxCell>
        <mxCell id="uAh_L9xHc_W9SGq94N6g-5" value="MINDEDENSA" style="html=1;outlineConnect=0;whiteSpace=wrap;fillColor=#dae8fc;shape=mxgraph.archimate3.application;appType=comp;archiType=square;strokeColor=#6c8ebf;fontFamily=Verdana;" vertex="1" parent="uAh_L9xHc_W9SGq94N6g-51">
          <mxGeometry x="183" y="50" width="130" height="60" as="geometry" />
        </mxCell>
        <mxCell id="uAh_L9xHc_W9SGq94N6g-6" value="C.REGIONAL" style="html=1;outlineConnect=0;whiteSpace=wrap;fillColor=#dae8fc;shape=mxgraph.archimate3.application;appType=comp;archiType=square;strokeColor=#6c8ebf;fontFamily=Verdana;" vertex="1" parent="uAh_L9xHc_W9SGq94N6g-51">
          <mxGeometry x="183" y="140" width="130" height="60" as="geometry" />
        </mxCell>
        <mxCell id="uAh_L9xHc_W9SGq94N6g-7" value="EVOA" style="html=1;outlineConnect=0;whiteSpace=wrap;fillColor=#dae8fc;shape=mxgraph.archimate3.application;appType=comp;archiType=square;strokeColor=#6c8ebf;fontFamily=Verdana;" vertex="1" parent="uAh_L9xHc_W9SGq94N6g-51">
          <mxGeometry x="183" y="230" width="130" height="60" as="geometry" />
        </mxCell>
        <mxCell id="uAh_L9xHc_W9SGq94N6g-8" value="D.ALTERNATIVO" style="html=1;outlineConnect=0;whiteSpace=wrap;fillColor=#dae8fc;shape=mxgraph.archimate3.application;appType=comp;archiType=square;strokeColor=#6c8ebf;fontFamily=Verdana;" vertex="1" parent="uAh_L9xHc_W9SGq94N6g-51">
          <mxGeometry x="183" y="320" width="130" height="60" as="geometry" />
        </mxCell>
        <mxCell id="uAh_L9xHc_W9SGq94N6g-9" value="MINJUSTICIA" style="html=1;outlineConnect=0;whiteSpace=wrap;fillColor=#dae8fc;shape=mxgraph.archimate3.application;appType=comp;archiType=square;strokeColor=#6c8ebf;fontFamily=Verdana;" vertex="1" parent="uAh_L9xHc_W9SGq94N6g-51">
          <mxGeometry x="323" y="50" width="130" height="60" as="geometry" />
        </mxCell>
        <mxCell id="uAh_L9xHc_W9SGq94N6g-10" value="CANCILLERIA" style="html=1;outlineConnect=0;whiteSpace=wrap;fillColor=#dae8fc;shape=mxgraph.archimate3.application;appType=comp;archiType=square;strokeColor=#6c8ebf;fontFamily=Verdana;" vertex="1" parent="uAh_L9xHc_W9SGq94N6g-51">
          <mxGeometry x="323" y="140" width="130" height="60" as="geometry" />
        </mxCell>
        <mxCell id="uAh_L9xHc_W9SGq94N6g-11" value="C.GEOGRÁFICAS" style="html=1;outlineConnect=0;whiteSpace=wrap;fillColor=#dae8fc;shape=mxgraph.archimate3.application;appType=comp;archiType=square;strokeColor=#6c8ebf;fontFamily=Verdana;" vertex="1" parent="uAh_L9xHc_W9SGq94N6g-51">
          <mxGeometry x="323" y="230" width="130" height="60" as="geometry" />
        </mxCell>
        <mxCell id="uAh_L9xHc_W9SGq94N6g-12" value="FUNCIONES" style="html=1;outlineConnect=0;whiteSpace=wrap;fillColor=#dae8fc;shape=mxgraph.archimate3.application;appType=comp;archiType=square;strokeColor=#6c8ebf;fontFamily=Verdana;" vertex="1" parent="uAh_L9xHc_W9SGq94N6g-51">
          <mxGeometry x="323" y="320" width="130" height="60" as="geometry" />
        </mxCell>
        <mxCell id="uAh_L9xHc_W9SGq94N6g-13" value="&lt;font face=&quot;Verdana&quot;&gt;&lt;b&gt;&amp;nbsp; &amp;nbsp; &amp;nbsp; &amp;nbsp; ÁREA DE&lt;br&gt;&amp;nbsp; &amp;nbsp; &amp;nbsp; &amp;nbsp; &amp;nbsp;PRUEBAS&lt;/b&gt;&lt;/font&gt;" style="html=1;outlineConnect=0;whiteSpace=wrap;fillColor=#dae8fc;shape=mxgraph.archimate3.component;align=center;strokeColor=#6c8ebf;" vertex="1" parent="uAh_L9xHc_W9SGq94N6g-51">
          <mxGeometry x="480" y="50" width="130" height="330" as="geometry" />
        </mxCell>
        <mxCell id="uAh_L9xHc_W9SGq94N6g-16" value="" style="endArrow=classic;html=1;rounded=0;exitX=0.5;exitY=0;exitDx=0;exitDy=0;exitPerimeter=0;entryX=0.25;entryY=0;entryDx=0;entryDy=0;entryPerimeter=0;" edge="1" parent="uAh_L9xHc_W9SGq94N6g-51" source="uAh_L9xHc_W9SGq94N6g-1" target="uAh_L9xHc_W9SGq94N6g-13">
          <mxGeometry width="50" height="50" relative="1" as="geometry">
            <mxPoint x="113" y="40" as="sourcePoint" />
            <mxPoint x="163" y="-10" as="targetPoint" />
            <Array as="points">
              <mxPoint x="108" y="20" />
              <mxPoint x="513" y="20" />
            </Array>
          </mxGeometry>
        </mxCell>
        <mxCell id="uAh_L9xHc_W9SGq94N6g-17" value="" style="endArrow=none;html=1;rounded=0;exitX=0.5;exitY=0;exitDx=0;exitDy=0;exitPerimeter=0;" edge="1" parent="uAh_L9xHc_W9SGq94N6g-51" source="uAh_L9xHc_W9SGq94N6g-5">
          <mxGeometry width="50" height="50" relative="1" as="geometry">
            <mxPoint x="233" y="60" as="sourcePoint" />
            <mxPoint x="248" y="20" as="targetPoint" />
          </mxGeometry>
        </mxCell>
        <mxCell id="uAh_L9xHc_W9SGq94N6g-19" value="" style="endArrow=none;html=1;rounded=0;exitX=0.5;exitY=0;exitDx=0;exitDy=0;exitPerimeter=0;" edge="1" parent="uAh_L9xHc_W9SGq94N6g-51">
          <mxGeometry width="50" height="50" relative="1" as="geometry">
            <mxPoint x="387.75" y="50" as="sourcePoint" />
            <mxPoint x="387.75" y="20" as="targetPoint" />
          </mxGeometry>
        </mxCell>
        <mxCell id="uAh_L9xHc_W9SGq94N6g-20" value="" style="endArrow=classic;html=1;rounded=0;exitX=0.5;exitY=0;exitDx=0;exitDy=0;exitPerimeter=0;" edge="1" parent="uAh_L9xHc_W9SGq94N6g-51" source="uAh_L9xHc_W9SGq94N6g-2">
          <mxGeometry width="50" height="50" relative="1" as="geometry">
            <mxPoint x="203" y="190" as="sourcePoint" />
            <mxPoint x="513" y="117" as="targetPoint" />
            <Array as="points">
              <mxPoint x="108" y="118" />
            </Array>
          </mxGeometry>
        </mxCell>
        <mxCell id="uAh_L9xHc_W9SGq94N6g-21" value="" style="endArrow=none;html=1;rounded=0;exitX=0.5;exitY=0;exitDx=0;exitDy=0;exitPerimeter=0;" edge="1" parent="uAh_L9xHc_W9SGq94N6g-51" source="uAh_L9xHc_W9SGq94N6g-6">
          <mxGeometry width="50" height="50" relative="1" as="geometry">
            <mxPoint x="243" y="140" as="sourcePoint" />
            <mxPoint x="248" y="118" as="targetPoint" />
          </mxGeometry>
        </mxCell>
        <mxCell id="uAh_L9xHc_W9SGq94N6g-22" value="" style="endArrow=none;html=1;rounded=0;exitX=0.5;exitY=0;exitDx=0;exitDy=0;exitPerimeter=0;" edge="1" parent="uAh_L9xHc_W9SGq94N6g-51">
          <mxGeometry width="50" height="50" relative="1" as="geometry">
            <mxPoint x="387.74" y="140" as="sourcePoint" />
            <mxPoint x="387.74" y="118" as="targetPoint" />
          </mxGeometry>
        </mxCell>
        <mxCell id="uAh_L9xHc_W9SGq94N6g-23" value="" style="endArrow=classic;html=1;rounded=0;exitX=0.5;exitY=0;exitDx=0;exitDy=0;exitPerimeter=0;" edge="1" parent="uAh_L9xHc_W9SGq94N6g-51">
          <mxGeometry width="50" height="50" relative="1" as="geometry">
            <mxPoint x="103" y="230" as="sourcePoint" />
            <mxPoint x="508" y="207" as="targetPoint" />
            <Array as="points">
              <mxPoint x="103" y="208" />
            </Array>
          </mxGeometry>
        </mxCell>
        <mxCell id="uAh_L9xHc_W9SGq94N6g-24" value="" style="endArrow=none;html=1;rounded=0;exitX=0.5;exitY=0;exitDx=0;exitDy=0;exitPerimeter=0;" edge="1" parent="uAh_L9xHc_W9SGq94N6g-51">
          <mxGeometry width="50" height="50" relative="1" as="geometry">
            <mxPoint x="243" y="230" as="sourcePoint" />
            <mxPoint x="243" y="208" as="targetPoint" />
          </mxGeometry>
        </mxCell>
        <mxCell id="uAh_L9xHc_W9SGq94N6g-25" value="" style="endArrow=none;html=1;rounded=0;exitX=0.5;exitY=0;exitDx=0;exitDy=0;exitPerimeter=0;" edge="1" parent="uAh_L9xHc_W9SGq94N6g-51">
          <mxGeometry width="50" height="50" relative="1" as="geometry">
            <mxPoint x="382.74" y="230" as="sourcePoint" />
            <mxPoint x="382.74" y="208" as="targetPoint" />
          </mxGeometry>
        </mxCell>
        <mxCell id="uAh_L9xHc_W9SGq94N6g-29" value="" style="endArrow=classic;html=1;rounded=0;exitX=0.5;exitY=1;exitDx=0;exitDy=0;exitPerimeter=0;entryX=0.25;entryY=1;entryDx=0;entryDy=0;entryPerimeter=0;" edge="1" parent="uAh_L9xHc_W9SGq94N6g-51" source="uAh_L9xHc_W9SGq94N6g-4" target="uAh_L9xHc_W9SGq94N6g-13">
          <mxGeometry width="50" height="50" relative="1" as="geometry">
            <mxPoint x="303" y="320" as="sourcePoint" />
            <mxPoint x="353" y="270" as="targetPoint" />
            <Array as="points">
              <mxPoint x="108" y="400" />
              <mxPoint x="513" y="400" />
            </Array>
          </mxGeometry>
        </mxCell>
        <mxCell id="uAh_L9xHc_W9SGq94N6g-30" value="" style="endArrow=none;html=1;rounded=0;entryX=0.5;entryY=1;entryDx=0;entryDy=0;entryPerimeter=0;" edge="1" parent="uAh_L9xHc_W9SGq94N6g-51" target="uAh_L9xHc_W9SGq94N6g-8">
          <mxGeometry width="50" height="50" relative="1" as="geometry">
            <mxPoint x="248" y="400" as="sourcePoint" />
            <mxPoint x="263" y="360" as="targetPoint" />
          </mxGeometry>
        </mxCell>
        <mxCell id="uAh_L9xHc_W9SGq94N6g-31" value="" style="endArrow=none;html=1;rounded=0;entryX=0.5;entryY=1;entryDx=0;entryDy=0;entryPerimeter=0;" edge="1" parent="uAh_L9xHc_W9SGq94N6g-51">
          <mxGeometry width="50" height="50" relative="1" as="geometry">
            <mxPoint x="387.8" y="400" as="sourcePoint" />
            <mxPoint x="387.8" y="380" as="targetPoint" />
          </mxGeometry>
        </mxCell>
        <mxCell id="uAh_L9xHc_W9SGq94N6g-32" value="" style="verticalAlign=top;verticalLabelPosition=bottom;labelPosition=center;align=center;html=1;outlineConnect=0;fillColor=#ffe6cc;strokeColor=#d79b00;gradientDirection=north;strokeWidth=2;shape=mxgraph.networks.storage;" vertex="1" parent="uAh_L9xHc_W9SGq94N6g-51">
          <mxGeometry x="533" y="320" width="50" height="50" as="geometry" />
        </mxCell>
        <mxCell id="uAh_L9xHc_W9SGq94N6g-33" value="&lt;font face=&quot;Verdana&quot;&gt;&lt;b&gt;&amp;nbsp; &amp;nbsp; &amp;nbsp; &amp;nbsp; ÁREA DE&lt;br&gt;&amp;nbsp; &amp;nbsp; &amp;nbsp; &amp;nbsp; &amp;nbsp;PRODUCCIÓN&lt;/b&gt;&lt;/font&gt;" style="html=1;outlineConnect=0;whiteSpace=wrap;fillColor=#dae8fc;shape=mxgraph.archimate3.component;align=center;strokeColor=#6c8ebf;" vertex="1" parent="uAh_L9xHc_W9SGq94N6g-51">
          <mxGeometry x="643" y="50" width="140" height="330" as="geometry" />
        </mxCell>
        <mxCell id="uAh_L9xHc_W9SGq94N6g-34" value="" style="endArrow=classic;html=1;rounded=0;exitX=1;exitY=0.5;exitDx=0;exitDy=0;exitPerimeter=0;entryX=0.25;entryY=0.499;entryDx=0;entryDy=0;entryPerimeter=0;" edge="1" parent="uAh_L9xHc_W9SGq94N6g-51" source="uAh_L9xHc_W9SGq94N6g-13" target="uAh_L9xHc_W9SGq94N6g-33">
          <mxGeometry width="50" height="50" relative="1" as="geometry">
            <mxPoint x="713" y="230" as="sourcePoint" />
            <mxPoint x="653" y="215" as="targetPoint" />
          </mxGeometry>
        </mxCell>
        <mxCell id="uAh_L9xHc_W9SGq94N6g-35" value="" style="verticalAlign=top;verticalLabelPosition=bottom;labelPosition=center;align=center;html=1;outlineConnect=0;fillColor=#ffe6cc;strokeColor=#d79b00;gradientDirection=north;strokeWidth=2;shape=mxgraph.networks.storage;" vertex="1" parent="uAh_L9xHc_W9SGq94N6g-51">
          <mxGeometry x="713" y="320" width="50" height="50" as="geometry" />
        </mxCell>
        <mxCell id="uAh_L9xHc_W9SGq94N6g-36" value="SUBDIRECCIÓN ESTRATÉGICA Y DE ANÁLISIS" style="html=1;outlineConnect=0;whiteSpace=wrap;fillColor=#fff2cc;shape=mxgraph.archimate3.application;appType=collab;archiType=square;strokeColor=#d6b656;fontFamily=Verdana;" vertex="1" parent="1">
          <mxGeometry x="507" y="830" width="150" height="75" as="geometry" />
        </mxCell>
        <mxCell id="uAh_L9xHc_W9SGq94N6g-37" value="SUBDIRECCIÓN DE TECNOLOGÍAS Y SISTEMAS DE INFORMACIÓN" style="html=1;outlineConnect=0;whiteSpace=wrap;fillColor=#fff2cc;shape=mxgraph.archimate3.application;appType=collab;archiType=square;strokeColor=#d6b656;fontFamily=Verdana;" vertex="1" parent="1">
          <mxGeometry x="676" y="830" width="150" height="75" as="geometry" />
        </mxCell>
        <mxCell id="uAh_L9xHc_W9SGq94N6g-38" value="Procesos Misionales" style="html=1;outlineConnect=0;whiteSpace=wrap;fillColor=#fff2cc;shape=mxgraph.archimate3.application;appType=func;archiType=rounded;strokeColor=#d6b656;" vertex="1" parent="1">
          <mxGeometry x="513" y="940" width="140" height="40" as="geometry" />
        </mxCell>
        <mxCell id="uAh_L9xHc_W9SGq94N6g-39" value="Procesos Estratégicos" style="html=1;outlineConnect=0;whiteSpace=wrap;fillColor=#fff2cc;shape=mxgraph.archimate3.application;appType=func;archiType=rounded;strokeColor=#d6b656;" vertex="1" parent="1">
          <mxGeometry x="361" y="940" width="140" height="40" as="geometry" />
        </mxCell>
        <mxCell id="uAh_L9xHc_W9SGq94N6g-40" value="Procesos de Apoyo" style="html=1;outlineConnect=0;whiteSpace=wrap;fillColor=#fff2cc;shape=mxgraph.archimate3.application;appType=func;archiType=rounded;strokeColor=#d6b656;" vertex="1" parent="1">
          <mxGeometry x="681" y="940" width="140" height="40" as="geometry" />
        </mxCell>
        <mxCell id="uAh_L9xHc_W9SGq94N6g-41" value="" style="endArrow=classic;html=1;rounded=0;exitX=0.5;exitY=0;exitDx=0;exitDy=0;exitPerimeter=0;entryX=0.5;entryY=1;entryDx=0;entryDy=0;entryPerimeter=0;" edge="1" parent="1" source="uAh_L9xHc_W9SGq94N6g-40" target="uAh_L9xHc_W9SGq94N6g-37">
          <mxGeometry width="50" height="50" relative="1" as="geometry">
            <mxPoint x="616" y="910" as="sourcePoint" />
            <mxPoint x="666" y="860" as="targetPoint" />
          </mxGeometry>
        </mxCell>
        <mxCell id="uAh_L9xHc_W9SGq94N6g-42" value="" style="endArrow=classic;html=1;rounded=0;exitX=0.5;exitY=0;exitDx=0;exitDy=0;exitPerimeter=0;entryX=0.5;entryY=1;entryDx=0;entryDy=0;entryPerimeter=0;" edge="1" parent="1" source="uAh_L9xHc_W9SGq94N6g-38" target="uAh_L9xHc_W9SGq94N6g-36">
          <mxGeometry width="50" height="50" relative="1" as="geometry">
            <mxPoint x="607" y="910" as="sourcePoint" />
            <mxPoint x="657" y="860" as="targetPoint" />
          </mxGeometry>
        </mxCell>
        <mxCell id="uAh_L9xHc_W9SGq94N6g-43" value="" style="endArrow=classic;html=1;rounded=0;exitX=0.5;exitY=0;exitDx=0;exitDy=0;exitPerimeter=0;entryX=0;entryY=0.5;entryDx=0;entryDy=0;entryPerimeter=0;" edge="1" parent="1" source="uAh_L9xHc_W9SGq94N6g-39" target="uAh_L9xHc_W9SGq94N6g-36">
          <mxGeometry width="50" height="50" relative="1" as="geometry">
            <mxPoint x="607" y="910" as="sourcePoint" />
            <mxPoint x="657" y="860" as="targetPoint" />
            <Array as="points">
              <mxPoint x="431" y="868" />
            </Array>
          </mxGeometry>
        </mxCell>
        <mxCell id="uAh_L9xHc_W9SGq94N6g-48" value="SV1. INFORMES Y PUBLICACIONES" style="html=1;outlineConnect=0;whiteSpace=wrap;fillColor=#d5e8d4;shape=mxgraph.archimate3.application;appType=passive;archiType=square;strokeColor=#82b366;fontFamily=Verdana;" vertex="1" parent="1">
          <mxGeometry x="60" y="250" width="150" height="75" as="geometry" />
        </mxCell>
        <mxCell id="uAh_L9xHc_W9SGq94N6g-49" value="SV2. PLATAFORMA DE INFORMACIÓN ESTADÍSTICA DINÁMICA" style="html=1;outlineConnect=0;whiteSpace=wrap;fillColor=#d5e8d4;shape=mxgraph.archimate3.application;appType=passive;archiType=square;strokeColor=#82b366;fontFamily=Verdana;" vertex="1" parent="1">
          <mxGeometry x="339" y="250" width="150" height="75" as="geometry" />
        </mxCell>
        <mxCell id="uAh_L9xHc_W9SGq94N6g-50" value="SV3. PLATAFORMA TRANSACCIONAL" style="html=1;outlineConnect=0;whiteSpace=wrap;fillColor=#d5e8d4;shape=mxgraph.archimate3.application;appType=passive;archiType=square;strokeColor=#82b366;fontFamily=Verdana;" vertex="1" parent="1">
          <mxGeometry x="650" y="250" width="150" height="75" as="geometry" />
        </mxCell>
        <mxCell id="uAh_L9xHc_W9SGq94N6g-53" value="" style="endArrow=classic;html=1;rounded=0;exitX=0.5;exitY=0;exitDx=0;exitDy=0;exitPerimeter=0;entryX=0.625;entryY=1;entryDx=0;entryDy=0;entryPerimeter=0;" edge="1" parent="1" source="uAh_L9xHc_W9SGq94N6g-36" target="uAh_L9xHc_W9SGq94N6g-13">
          <mxGeometry width="50" height="50" relative="1" as="geometry">
            <mxPoint x="570" y="920" as="sourcePoint" />
            <mxPoint x="620" y="870" as="targetPoint" />
          </mxGeometry>
        </mxCell>
        <mxCell id="uAh_L9xHc_W9SGq94N6g-54" value="" style="endArrow=classic;html=1;rounded=0;entryX=0.625;entryY=1;entryDx=0;entryDy=0;entryPerimeter=0;" edge="1" parent="1" source="uAh_L9xHc_W9SGq94N6g-37" target="uAh_L9xHc_W9SGq94N6g-33">
          <mxGeometry width="50" height="50" relative="1" as="geometry">
            <mxPoint x="570" y="920" as="sourcePoint" />
            <mxPoint x="620" y="870" as="targetPoint" />
          </mxGeometry>
        </mxCell>
        <mxCell id="uAh_L9xHc_W9SGq94N6g-55" value="" style="endArrow=classic;startArrow=classic;html=1;rounded=0;entryX=0;entryY=0.5;entryDx=0;entryDy=0;entryPerimeter=0;exitX=1;exitY=0.5;exitDx=0;exitDy=0;exitPerimeter=0;" edge="1" parent="1" source="uAh_L9xHc_W9SGq94N6g-36" target="uAh_L9xHc_W9SGq94N6g-37">
          <mxGeometry width="50" height="50" relative="1" as="geometry">
            <mxPoint x="570" y="887" as="sourcePoint" />
            <mxPoint x="620" y="837" as="targetPoint" />
          </mxGeometry>
        </mxCell>
        <mxCell id="uAh_L9xHc_W9SGq94N6g-57" value="" style="swimlane;startSize=0;" vertex="1" parent="1">
          <mxGeometry x="368" y="110" width="92" height="90" as="geometry" />
        </mxCell>
        <mxCell id="uAh_L9xHc_W9SGq94N6g-56" value="USUARIOS" style="shape=umlActor;verticalLabelPosition=bottom;verticalAlign=top;html=1;outlineConnect=0;" vertex="1" parent="uAh_L9xHc_W9SGq94N6g-57">
          <mxGeometry x="41" y="10" width="30" height="60" as="geometry" />
        </mxCell>
        <mxCell id="uAh_L9xHc_W9SGq94N6g-60" value="" style="endArrow=classic;html=1;rounded=0;exitX=0;exitY=0.5;exitDx=0;exitDy=0;entryX=0.5;entryY=0;entryDx=0;entryDy=0;entryPerimeter=0;" edge="1" parent="1" source="uAh_L9xHc_W9SGq94N6g-57" target="uAh_L9xHc_W9SGq94N6g-48">
          <mxGeometry width="50" height="50" relative="1" as="geometry">
            <mxPoint x="490" y="280" as="sourcePoint" />
            <mxPoint x="540" y="230" as="targetPoint" />
            <Array as="points">
              <mxPoint x="135" y="155" />
            </Array>
          </mxGeometry>
        </mxCell>
        <mxCell id="uAh_L9xHc_W9SGq94N6g-61" value="" style="endArrow=classic;html=1;rounded=0;exitX=1;exitY=0.5;exitDx=0;exitDy=0;entryX=0.5;entryY=0;entryDx=0;entryDy=0;entryPerimeter=0;" edge="1" parent="1" source="uAh_L9xHc_W9SGq94N6g-57" target="uAh_L9xHc_W9SGq94N6g-50">
          <mxGeometry width="50" height="50" relative="1" as="geometry">
            <mxPoint x="490" y="280" as="sourcePoint" />
            <mxPoint x="540" y="230" as="targetPoint" />
            <Array as="points">
              <mxPoint x="725" y="155" />
            </Array>
          </mxGeometry>
        </mxCell>
        <mxCell id="uAh_L9xHc_W9SGq94N6g-62" value="" style="endArrow=classic;html=1;rounded=0;exitX=0.5;exitY=1;exitDx=0;exitDy=0;entryX=0.5;entryY=0;entryDx=0;entryDy=0;entryPerimeter=0;" edge="1" parent="1" source="uAh_L9xHc_W9SGq94N6g-57" target="uAh_L9xHc_W9SGq94N6g-49">
          <mxGeometry width="50" height="50" relative="1" as="geometry">
            <mxPoint x="490" y="280" as="sourcePoint" />
            <mxPoint x="540" y="230" as="targetPoint" />
          </mxGeometry>
        </mxCell>
        <mxCell id="uAh_L9xHc_W9SGq94N6g-64" value="" style="endArrow=classic;html=1;rounded=0;entryX=0.5;entryY=1;entryDx=0;entryDy=0;entryPerimeter=0;exitX=0.625;exitY=0;exitDx=0;exitDy=0;exitPerimeter=0;" edge="1" parent="1" source="uAh_L9xHc_W9SGq94N6g-33" target="uAh_L9xHc_W9SGq94N6g-50">
          <mxGeometry width="50" height="50" relative="1" as="geometry">
            <mxPoint x="480" y="480" as="sourcePoint" />
            <mxPoint x="530" y="430" as="targetPoint" />
            <Array as="points">
              <mxPoint x="750" y="360" />
              <mxPoint x="725" y="360" />
            </Array>
          </mxGeometry>
        </mxCell>
        <mxCell id="uAh_L9xHc_W9SGq94N6g-66" value="" style="endArrow=classic;html=1;rounded=0;entryX=0.5;entryY=1;entryDx=0;entryDy=0;entryPerimeter=0;exitX=0.625;exitY=0;exitDx=0;exitDy=0;exitPerimeter=0;" edge="1" parent="1" source="uAh_L9xHc_W9SGq94N6g-33" target="uAh_L9xHc_W9SGq94N6g-48">
          <mxGeometry width="50" height="50" relative="1" as="geometry">
            <mxPoint x="350" y="580" as="sourcePoint" />
            <mxPoint x="400" y="530" as="targetPoint" />
            <Array as="points">
              <mxPoint x="750" y="360" />
              <mxPoint x="135" y="360" />
            </Array>
          </mxGeometry>
        </mxCell>
        <mxCell id="uAh_L9xHc_W9SGq94N6g-68" value="" style="endArrow=classic;html=1;rounded=0;entryX=0.5;entryY=1;entryDx=0;entryDy=0;entryPerimeter=0;exitX=0.625;exitY=0;exitDx=0;exitDy=0;exitPerimeter=0;" edge="1" parent="1" source="uAh_L9xHc_W9SGq94N6g-33" target="uAh_L9xHc_W9SGq94N6g-49">
          <mxGeometry width="50" height="50" relative="1" as="geometry">
            <mxPoint x="350" y="420" as="sourcePoint" />
            <mxPoint x="400" y="370" as="targetPoint" />
            <Array as="points">
              <mxPoint x="751" y="360" />
              <mxPoint x="414" y="360" />
            </Array>
          </mxGeometry>
        </mxCell>
      </root>
    </mxGraphModel>
  </diagram>
</mxfile>
